<svg width="24" height="24" viewBox="0 0 24 24" fill="none" xmlns="http://www.w3.org/2000/svg">
<mask id="mask0_590_1607" style="mask-type:alpha" maskUnits="userSpaceOnUse" x="0" y="0" width="24" height="24">
<path d="M12 24C17.2582 24 20.1817 24 22.0909 22.0908C24 20.1816 24 17.2602 24 12C24 6.73984 24 3.81836 22.0909 1.90919C20.1817 0 17.2582 0 12 0C6.74156 0 3.81836 0 1.9092 1.90919C7.15256e-07 3.81836 0 6.74156 0 12C0 17.2584 7.15256e-07 20.1816 1.9092 22.0908C3.81836 24 6.74156 24 12 24Z" fill="url(#paint0_linear_590_1607)"/>
</mask>
<g mask="url(#mask0_590_1607)">
<path d="M24 0H0V24H24V0Z" fill="#1D3A60"/>
</g>
<path d="M15.56 7.64016C15.4018 7.64016 15.2471 7.68708 15.1155 7.77499C14.984 7.86289 14.8814 7.98784 14.8209 8.13402C14.7603 8.2802 14.7445 8.44105 14.7754 8.59624C14.8062 8.75142 14.8824 8.89397 14.9943 9.00585C15.1062 9.11773 15.2487 9.19392 15.4039 9.22479C15.5591 9.25566 15.7199 9.23982 15.8661 9.17927C16.0123 9.11872 16.1372 9.01618 16.2252 8.88462C16.3131 8.75306 16.36 8.59839 16.36 8.44016C16.36 8.22799 16.2757 8.02451 16.1257 7.87448C15.9756 7.72445 15.7722 7.64016 15.56 7.64016ZM18.6266 9.2535C18.6137 8.70036 18.5101 8.1531 18.32 7.6335C18.1505 7.18892 17.8866 6.78635 17.5466 6.4535C17.2165 6.11178 16.813 5.84961 16.3666 5.68683C15.8484 5.49094 15.3005 5.38497 14.7466 5.3735C14.04 5.3335 13.8133 5.3335 12 5.3335C10.1866 5.3335 9.95998 5.3335 9.25331 5.3735C8.69941 5.38497 8.15154 5.49094 7.63331 5.68683C7.18776 5.85126 6.7846 6.1132 6.45331 6.4535C6.1116 6.78361 5.84943 7.18712 5.68665 7.6335C5.49075 8.15172 5.38479 8.6996 5.37331 9.2535C5.33331 9.96016 5.33331 10.1868 5.33331 12.0002C5.33331 13.8135 5.33331 14.0402 5.37331 14.7468C5.38479 15.3007 5.49075 15.8486 5.68665 16.3668C5.84943 16.8132 6.1116 17.2167 6.45331 17.5468C6.7846 17.8871 7.18776 18.1491 7.63331 18.3135C8.15154 18.5094 8.69941 18.6154 9.25331 18.6268C9.95998 18.6668 10.1866 18.6668 12 18.6668C13.8133 18.6668 14.04 18.6668 14.7466 18.6268C15.3005 18.6154 15.8484 18.5094 16.3666 18.3135C16.813 18.1507 17.2165 17.8885 17.5466 17.5468C17.8881 17.2152 18.1522 16.8123 18.32 16.3668C18.5101 15.8472 18.6137 15.3 18.6266 14.7468C18.6266 14.0402 18.6666 13.8135 18.6666 12.0002C18.6666 10.1868 18.6666 9.96016 18.6266 9.2535ZM17.4266 14.6668C17.4218 15.09 17.3451 15.5093 17.2 15.9068C17.0935 16.197 16.9226 16.4591 16.7 16.6735C16.4837 16.8938 16.2221 17.0645 15.9333 17.1735C15.5358 17.3187 15.1165 17.3953 14.6933 17.4002C14.0266 17.4335 13.78 17.4402 12.0266 17.4402C10.2733 17.4402 10.0266 17.4402 9.35998 17.4002C8.92057 17.4084 8.48304 17.3407 8.06665 17.2002C7.7905 17.0855 7.54088 16.9154 7.33331 16.7002C7.11204 16.486 6.94321 16.2236 6.83998 15.9335C6.67722 15.5303 6.58694 15.1015 6.57331 14.6668C6.57331 14.0002 6.53331 13.7535 6.53331 12.0002C6.53331 10.2468 6.53331 10.0002 6.57331 9.3335C6.5763 8.90087 6.65528 8.47213 6.80665 8.06683C6.92401 7.78544 7.10416 7.5346 7.33331 7.3335C7.53586 7.10427 7.78617 6.92223 8.06665 6.80016C8.47301 6.65353 8.90131 6.57688 9.33331 6.5735C9.99998 6.5735 10.2466 6.5335 12 6.5335C13.7533 6.5335 14 6.5335 14.6666 6.5735C15.0898 6.57835 15.5091 6.65499 15.9066 6.80016C16.2096 6.9126 16.4815 7.09539 16.7 7.3335C16.9184 7.53828 17.0892 7.78865 17.2 8.06683C17.3481 8.47279 17.4248 8.90135 17.4266 9.3335C17.46 10.0002 17.4666 10.2468 17.4666 12.0002C17.4666 13.7535 17.46 14.0002 17.4266 14.6668ZM12 8.58016C11.3239 8.58148 10.6633 8.78318 10.1017 9.15977C9.54021 9.53637 9.1029 10.071 8.84507 10.696C8.58724 11.321 8.52046 12.0085 8.65318 12.6714C8.78589 13.3344 9.11214 13.9432 9.5907 14.4208C10.0693 14.8984 10.6787 15.2235 11.3419 15.3549C12.0051 15.4864 12.6924 15.4182 13.317 15.1592C13.9415 14.9001 14.4752 14.4618 14.8507 13.8995C15.2262 13.3372 15.4266 12.6763 15.4266 12.0002C15.4275 11.5502 15.3394 11.1046 15.1675 10.6888C14.9955 10.273 14.743 9.89537 14.4246 9.57753C14.1061 9.25969 13.7279 9.00795 13.3118 8.83678C12.8957 8.66562 12.4499 8.5784 12 8.58016ZM12 14.2202C11.5609 14.2202 11.1317 14.09 10.7666 13.846C10.4015 13.6021 10.117 13.2554 9.94897 12.8497C9.78094 12.4441 9.73698 11.9977 9.82264 11.5671C9.9083 11.1364 10.1197 10.7409 10.4302 10.4304C10.7407 10.1199 11.1362 9.90848 11.5669 9.82282C11.9975 9.73716 12.4439 9.78112 12.8495 9.94915C13.2552 10.1172 13.6019 10.4017 13.8458 10.7668C14.0898 11.1319 14.22 11.5611 14.22 12.0002C14.22 12.2917 14.1626 12.5804 14.051 12.8497C13.9394 13.1191 13.7759 13.3638 13.5698 13.5699C13.3636 13.7761 13.1189 13.9396 12.8495 14.0512C12.5802 14.1627 12.2915 14.2202 12 14.2202Z" fill="white"/>
<defs>
<linearGradient id="paint0_linear_590_1607" x1="0" y1="7.34831" x2="24" y2="7.34831" gradientUnits="userSpaceOnUse">
<stop/>
<stop offset="1"/>
</linearGradient>
</defs>
</svg>
