<svg width="24" height="24" viewBox="0 0 24 24" fill="none" xmlns="http://www.w3.org/2000/svg">
<mask id="mask0_590_1615" style="mask-type:alpha" maskUnits="userSpaceOnUse" x="0" y="0" width="24" height="24">
<path d="M12 24C17.2582 24 20.1817 24 22.0909 22.0908C24 20.1816 24 17.2602 24 12C24 6.73984 24 3.81836 22.0909 1.90919C20.1817 0 17.2582 0 12 0C6.74156 0 3.81836 0 1.9092 1.90919C7.15256e-07 3.81836 0 6.74156 0 12C0 17.2584 7.15256e-07 20.1816 1.9092 22.0908C3.81836 24 6.74156 24 12 24Z" fill="url(#paint0_linear_590_1615)"/>
</mask>
<g mask="url(#mask0_590_1615)">
<path d="M24 0H0V24H24V0Z" fill="#1D3A60"/>
<path d="M7.91871 8.08324H7.90228C7.72342 8.09403 7.54426 8.06783 7.37598 8.00627C7.2077 7.94471 7.05391 7.84911 6.92423 7.72546C6.79455 7.6018 6.69176 7.45274 6.62227 7.28757C6.55278 7.12241 6.51809 6.94469 6.52037 6.76552C6.52264 6.58634 6.56183 6.40956 6.63549 6.24622C6.70915 6.08287 6.81569 5.93646 6.94847 5.81613C7.08125 5.69581 7.23741 5.60415 7.4072 5.54688C7.57699 5.48962 7.75676 5.46797 7.93529 5.48329C8.1147 5.4703 8.29487 5.49456 8.46445 5.55457C8.63403 5.61457 8.78937 5.709 8.92069 5.83194C9.05201 5.95488 9.15648 6.10366 9.22752 6.26892C9.29856 6.43418 9.33464 6.61235 9.3335 6.79224C9.33235 6.97212 9.294 7.14982 9.22085 7.31416C9.14771 7.4785 9.04136 7.62593 8.90848 7.74719C8.7756 7.86844 8.61907 7.96089 8.44874 8.01872C8.2784 8.07656 8.09795 8.09852 7.91871 8.08324Z" fill="white"/>
<path d="M9.09383 9.83301H6.7605V16.833H9.09383V9.83301Z" fill="white"/>
<path d="M15.2185 9.83301C14.8253 9.83408 14.4374 9.92401 14.0839 10.0961C13.7304 10.2682 13.4203 10.5179 13.1768 10.8267V9.83301H10.8435V16.833H13.1768V13.6247C13.1768 13.3153 13.2998 13.0185 13.5185 12.7997C13.7373 12.5809 14.0341 12.458 14.3435 12.458C14.6529 12.458 14.9497 12.5809 15.1685 12.7997C15.3873 13.0185 15.5102 13.3153 15.5102 13.6247V16.833H17.8435V12.458C17.8435 12.1133 17.7756 11.7719 17.6437 11.4535C17.5118 11.135 17.3184 10.8456 17.0747 10.6019C16.8309 10.3581 16.5415 10.1647 16.2231 10.0328C15.9046 9.90091 15.5632 9.83301 15.2185 9.83301Z" fill="white"/>
</g>
<defs>
<linearGradient id="paint0_linear_590_1615" x1="0" y1="7.34831" x2="24" y2="7.34831" gradientUnits="userSpaceOnUse">
<stop/>
<stop offset="1"/>
</linearGradient>
</defs>
</svg>
